<svg width="144" height="58" viewBox="0 0 144 58" xmlns="http://www.w3.org/2000/svg"><title>Group 7</title><g fill="none" fill-rule="evenodd"><path d="M64.38 6.708h-3.048V15h-2.05V6.708h-3.009V5.047h8.108v1.661zm2.387.896v5.803h2.03V7.604h1.982v5.803h2.024V7.604h1.982v5.817h1.47l-.137 3.773H74.28V15h-9.488V7.604h1.976zM81.697 15a2.194 2.194 0 0 1-.199-.663c-.478.533-1.1.8-1.866.8-.725 0-1.325-.21-1.801-.63a2.023 2.023 0 0 1-.715-1.585c0-.784.29-1.386.872-1.805.58-.42 1.42-.631 2.519-.636h.909v-.423c0-.342-.088-.616-.263-.82-.176-.206-.452-.308-.83-.308-.333 0-.594.08-.783.239-.19.16-.284.378-.284.656H77.28c0-.428.132-.825.397-1.19.264-.364.638-.65 1.12-.857a4.086 4.086 0 0 1 1.628-.311c.911 0 1.635.229 2.17.687.536.458.803 1.102.803 1.931v3.206c.005.702.103 1.233.294 1.593V15h-1.996zm-1.635-1.374c.292 0 .561-.065.807-.195a1.28 1.28 0 0 0 .547-.523v-1.271h-.738c-.99 0-1.516.342-1.58 1.025l-.006.116a.79.79 0 0 0 .26.609c.173.16.41.239.71.239zm10.883-4.437h-2.372V15h-1.982V9.19H84.26V7.603h6.685v1.585zm3.958 5.948c-1.084 0-1.967-.333-2.649-.998-.68-.666-1.022-1.552-1.022-2.66v-.19c0-.744.144-1.408.431-1.994a3.16 3.16 0 0 1 1.22-1.353c.527-.317 1.127-.475 1.802-.475 1.011 0 1.808.319 2.389.957.58.638.871 1.542.871 2.714v.806h-4.71c.064.483.257.87.578 1.162.321.292.728.438 1.22.438.761 0 1.356-.276 1.784-.827l.971 1.087c-.296.419-.697.746-1.203.98a3.947 3.947 0 0 1-1.682.353zm-.225-6.07c-.392 0-.71.132-.954.396s-.4.642-.468 1.135h2.748v-.158c-.01-.437-.128-.775-.356-1.015-.227-.239-.551-.359-.97-.359zm10.821-1.463V15h-1.976V9.203h-1.743l-.123 2.283c-.077 1.217-.317 2.104-.718 2.66-.4.556-.998.84-1.79.854h-.67l-.021-1.606.246-.021c.356-.027.615-.237.78-.629.163-.392.266-1.06.307-2.003l.137-3.137h5.571zm3.637 2.167h1.415c.638 0 1.198.107 1.681.32.483.215.854.521 1.111.92.258.399.386.863.386 1.391 0 .78-.288 1.407-.864 1.884-.577.476-1.362.714-2.355.714h-3.357V7.604h1.983V9.77zm0 1.585v2.065h1.401c.392 0 .693-.091.902-.274.21-.182.315-.43.315-.745 0-.319-.103-.573-.308-.762-.205-.189-.508-.284-.909-.284h-1.401zM121.249 15h-1.982v-2.844h-2.454V15h-1.976V7.604h1.975v2.966h2.455V7.604h1.982V15zm1.224-3.767c0-.733.14-1.387.423-1.962a3.103 3.103 0 0 1 1.22-1.333c.532-.314 1.148-.471 1.85-.471.998 0 1.812.305 2.444.916.63.61.983 1.44 1.056 2.488l.013.506c0 1.135-.316 2.045-.95 2.73-.633.687-1.483 1.03-2.55 1.03-1.066 0-1.917-.342-2.553-1.026-.635-.683-.953-1.613-.953-2.789v-.089zm1.975.144c0 .702.132 1.238.397 1.61.264.371.642.557 1.134.557.479 0 .853-.183 1.122-.55.268-.367.403-.954.403-1.76 0-.689-.135-1.222-.403-1.6-.27-.378-.648-.568-1.135-.568-.483 0-.857.188-1.121.564-.265.376-.397.959-.397 1.747zM63.191 35H61.21v-5.797h-2.475V35H56.76v-7.396h6.432V35zm8.17-3.63c0 1.14-.26 2.052-.777 2.738-.517.686-1.215 1.029-2.095 1.029-.747 0-1.351-.26-1.811-.78v3.487h-1.976v-10.24h1.832l.069.724c.478-.574 1.102-.861 1.873-.861.911 0 1.62.337 2.126 1.012.505.674.758 1.604.758 2.789v.102zm-1.976-.143c0-.689-.122-1.22-.366-1.593-.244-.374-.598-.56-1.063-.56-.62 0-1.046.236-1.278.71v3.029c.241.487.672.73 1.292.73.943 0 1.415-.772 1.415-2.316zm2.891.006c0-.733.142-1.387.424-1.962a3.103 3.103 0 0 1 1.22-1.333c.531-.314 1.148-.471 1.85-.471.998 0 1.812.305 2.443.916.632.61.984 1.44 1.057 2.488l.013.506c0 1.135-.317 2.045-.95 2.73-.633.687-1.483 1.03-2.55 1.03-1.066 0-1.917-.342-2.553-1.026-.636-.683-.954-1.613-.954-2.789v-.089zm1.976.144c0 .702.132 1.238.396 1.61.265.371.643.557 1.135.557.479 0 .852-.183 1.121-.55.27-.367.404-.954.404-1.76 0-.689-.135-1.222-.404-1.6-.269-.378-.647-.568-1.134-.568-.484 0-.857.188-1.122.564-.264.376-.396.959-.396 1.747zm5.858 2.03c.447-.474.75-.943.91-1.408.159-.465.248-1.123.266-1.976l.055-2.42h5.441v5.804h1.067v3.815h-1.976V35h-4.382v2.222h-2.016v-3.815h.635zm2.331 0h2.372v-4.17h-1.538l-.013.889c-.041 1.358-.315 2.452-.82 3.281zm9.167-1.203l1.368-4.6h2.119l-2.974 8.544-.164.39c-.442.966-1.171 1.45-2.187 1.45-.288 0-.58-.044-.875-.13V36.36l.3.007c.374 0 .653-.057.838-.17.184-.115.329-.304.434-.568l.232-.608-2.59-7.417h2.125l1.374 4.6zm8.77.465l1.935-5.065h2.475V35h-1.975v-4.54L101.041 35h-1.326l-1.737-4.464V35h-1.975v-7.396h2.454l1.92 5.065zM110.79 35a2.194 2.194 0 0 1-.198-.663c-.479.533-1.1.8-1.866.8-.725 0-1.325-.21-1.802-.63a2.023 2.023 0 0 1-.714-1.585c0-.784.29-1.386.872-1.805.58-.42 1.42-.631 2.519-.636h.909v-.423c0-.342-.088-.616-.263-.82-.176-.206-.453-.308-.831-.308-.333 0-.594.08-.783.239-.189.16-.283.378-.283.656h-1.976c0-.428.132-.825.397-1.19.264-.364.638-.65 1.12-.857a4.086 4.086 0 0 1 1.628-.311c.911 0 1.634.229 2.17.687.535.458.803 1.102.803 1.931v3.206c.005.702.103 1.233.294 1.593V35h-1.996zm-1.634-1.374c.292 0 .56-.065.807-.195a1.28 1.28 0 0 0 .547-.523v-1.271h-.739c-.988 0-1.515.342-1.579 1.025l-.006.116a.79.79 0 0 0 .26.609c.172.16.41.239.71.239zM120.422 35h-1.983v-2.844h-2.454V35h-1.975v-7.396h1.975v2.966h2.454v-2.966h1.983V35zm7.943 0h-1.982v-2.844h-2.454V35h-1.976v-7.396h1.976v2.966h2.454v-2.966h1.982V35zm5.818 0a2.194 2.194 0 0 1-.199-.663c-.478.533-1.1.8-1.866.8-.724 0-1.325-.21-1.801-.63a2.023 2.023 0 0 1-.714-1.585c0-.784.29-1.386.871-1.805.581-.42 1.42-.631 2.52-.636h.908v-.423c0-.342-.087-.616-.263-.82-.175-.206-.452-.308-.83-.308-.333 0-.594.08-.783.239-.19.16-.284.378-.284.656h-1.975c0-.428.132-.825.396-1.19.264-.364.638-.65 1.121-.857a4.086 4.086 0 0 1 1.627-.311c.912 0 1.635.229 2.17.687.536.458.804 1.102.804 1.931v3.206c.004.702.102 1.233.294 1.593V35h-1.996zm-1.634-1.374c.291 0 .56-.065.806-.195a1.28 1.28 0 0 0 .547-.523v-1.271h-.738c-.989 0-1.515.342-1.579 1.025l-.007.116a.79.79 0 0 0 .26.609c.173.16.41.239.71.239zm11.02-6.022V35h-1.97v-2.557h-1.25L138.927 35h-2.003l1.613-2.892c-.442-.205-.783-.483-1.022-.834-.24-.35-.359-.75-.359-1.196 0-.715.277-1.302.83-1.76.555-.458 1.296-.696 2.226-.714h3.356zm-3.323 3.459h1.354v-1.874h-1.286c-.35 0-.635.093-.854.277a.85.85 0 0 0-.328.674c0 .264.105.483.314.656.21.173.477.262.8.267zm-80.589 21.21h-.793V55H56.89v-7.396h1.975v2.782h.704l1.614-2.782h2.495l-2.42 3.52L63.902 55h-2.631l-1.614-2.728zm4.293-1.04c0-.733.141-1.387.424-1.962a3.103 3.103 0 0 1 1.22-1.333c.531-.314 1.148-.471 1.85-.471.997 0 1.812.305 2.443.916.631.61.983 1.44 1.056 2.488l.014.506c0 1.135-.317 2.045-.95 2.73-.634.687-1.484 1.03-2.55 1.03-1.066 0-1.917-.342-2.553-1.026-.636-.683-.954-1.613-.954-2.789v-.089zm1.976.144c0 .702.132 1.238.396 1.61.265.371.643.557 1.135.557.479 0 .852-.183 1.121-.55.269-.367.403-.954.403-1.76 0-.689-.134-1.222-.403-1.6-.269-.378-.647-.568-1.135-.568-.483 0-.856.188-1.12.564-.265.376-.397.959-.397 1.747zM78.586 55h-1.982v-2.844h-2.455V55h-1.975v-7.396h1.975v2.966h2.455v-2.966h1.982V55zm4.607-1.456c.365 0 .661-.1.889-.3.228-.201.346-.468.356-.8h1.852c-.005.5-.141.96-.41 1.377-.269.417-.637.74-1.104.97-.467.23-.983.346-1.548.346-1.058 0-1.892-.336-2.502-1.009-.611-.672-.916-1.6-.916-2.785v-.13c0-1.14.303-2.049.909-2.728.606-.679 1.438-1.018 2.495-1.018.925 0 1.667.263 2.225.79.558.526.842 1.226.851 2.101h-1.853c-.009-.382-.127-.693-.355-.933-.228-.239-.529-.359-.902-.359-.46 0-.808.168-1.043.503-.234.335-.352.878-.352 1.63v.205c0 .761.116 1.308.349 1.64.232.334.585.5 1.06.5zm10.364-4.355h-2.372V55h-1.983v-5.81h-2.33v-1.586h6.685v1.585zm7.65 2.181c0 1.14-.26 2.052-.777 2.738-.517.686-1.215 1.029-2.095 1.029-.747 0-1.351-.26-1.812-.78v3.487h-1.975v-10.24h1.832l.068.724c.479-.574 1.103-.861 1.873-.861.912 0 1.62.337 2.126 1.012.506.674.76 1.604.76 2.789v.102zm-1.977-.143c0-.689-.121-1.22-.365-1.593-.244-.374-.598-.56-1.063-.56-.62 0-1.046.236-1.279.71v3.029c.242.487.673.73 1.292.73.944 0 1.415-.772 1.415-2.316zm5.886.977l1.367-4.6h2.12l-2.974 8.544-.164.39c-.442.966-1.171 1.45-2.188 1.45-.287 0-.578-.044-.875-.13V56.36l.301.007c.374 0 .653-.057.838-.17.184-.115.329-.304.434-.568l.232-.608-2.59-7.417h2.125l1.374 4.6zm7.164.068h-.793V55h-1.975v-7.396h1.975v2.782h.704l1.614-2.782h2.495l-2.42 3.52L116.525 55h-2.631l-1.614-2.728zm4.99-4.668h1.976v5.803h2.475v-5.803h1.982v5.817h1.108l-.137 3.773h-1.839V55h-5.564v-7.396zm12.989 0h1.975V55h-1.975v-4.566L127.784 55h-1.982v-7.396h1.982v4.56l2.475-4.56zm9.652 0V55h-1.969v-2.557h-1.25L135.27 55h-2.003l1.613-2.892c-.442-.205-.783-.483-1.022-.834-.24-.35-.359-.75-.359-1.196 0-.715.277-1.302.83-1.76.554-.458 1.296-.696 2.226-.714h3.356zm-3.322 3.459h1.353v-1.874h-1.285c-.35 0-.636.093-.854.277a.85.85 0 0 0-.328.674c0 .264.104.483.314.656.21.173.476.262.8.267z" fill="#000"/><g fill="#F5CF00" fill-rule="nonzero"><path d="M34.542 11.324h-10.6l-5.299 9.219 5.299 9.22h10.6l5.299-9.22zM5.657 21.561L.36 30.779 5.657 40h10.599l5.3-9.22-5.3-9.219zM16.257 19.376l5.3-9.218-5.3-9.221h-10.6L.36 10.157l5.298 9.219z"/></g></g></svg>