<svg width="70" height="70" viewBox="0 0 70 70" xmlns="http://www.w3.org/2000/svg"><title>icon</title><g fill="none" fill-rule="evenodd"><circle fill="#F5CF00" cx="35" cy="35" r="35"/><g fill="#000" fill-rule="nonzero"><path d="M36.002 26.855c0 2.485-3.687 2.485-3.687 0 0-2.484 3.687-2.484 3.687 0"/><path d="M35 22.208c-3.647 0-6.614 3-6.614 6.687 0 3.687 2.967 6.687 6.614 6.687s6.614-3 6.614-6.687c0-3.687-2.967-6.687-6.614-6.687zm0 11.707c-2.738 0-4.963-2.252-4.963-5.018 0-2.768 2.225-5.018 4.963-5.018s4.963 2.25 4.963 5.018-2.225 5.018-4.963 5.018z"/><path d="M36 24.877c.521.498.854 1.198.854 1.978 0 1.503-1.209 2.726-2.693 2.726-1.486 0-2.695-1.222-2.695-2.726 0-.02.005-.038.007-.057a4.149 4.149 0 0 0-.584 2.1c0 2.291 1.846 4.157 4.113 4.157 2.267 0 4.112-1.866 4.112-4.158A4.147 4.147 0 0 0 36 24.877zM31.735 41.108l-.001-.007c-.39-1.203-1.07-2.71-2.158-4.595-2.934 5.076-2.882 7.417-2.287 8.483.567 1.016 1.788 1.127 2.287 1.127.499 0 1.722-.11 2.287-1.127.374-.67.532-1.844-.128-3.881z"/><path d="M48.443 34.495c1.683-1.718 3.59-3.652 6.303-5.6-2.713-1.948-4.621-3.882-6.303-5.6-3.53-3.603-6.08-6.206-13.443-6.206-7.36 0-9.91 2.601-13.44 6.204-1.685 1.718-3.591 3.654-6.306 5.602 2.715 1.948 4.621 3.882 6.305 5.602 1.865 1.904 3.496 3.554 5.708 4.665a32.619 32.619 0 0 1 1.947-3.724c.003-.005.008-.007.011-.012.017-.023.039-.043.059-.064.02-.02.038-.042.061-.057.005-.003.007-.008.012-.012.016-.01.036-.011.053-.018a.426.426 0 0 1 .088-.032c.025-.005.05-.003.075-.003.028 0 .056-.002.086.005a.475.475 0 0 1 .082.03c.018.008.04.01.056.02.005.003.008.009.013.012.024.015.042.037.062.057.02.02.043.04.058.064.003.005.008.007.012.012 1.172 1.953 1.993 3.658 2.5 5.137.8.082 1.654.128 2.56.128 7.36-.002 9.91-2.605 13.44-6.21zM35 36.445c-4.117 0-7.465-3.387-7.465-7.548s3.35-7.548 7.465-7.548c4.116 0 7.465 3.387 7.465 7.548S39.117 36.444 35 36.444zM21.724 44.301c-2.934 5.076-2.882 7.417-2.287 8.482.566 1.017 1.788 1.128 2.287 1.128.5 0 1.722-.11 2.289-1.128.591-1.065.645-3.406-2.29-8.482z"/></g></g></svg>