<svg width="70" height="70" viewBox="0 0 70 70" xmlns="http://www.w3.org/2000/svg"><title>icon</title><g fill="none" fill-rule="evenodd"><circle fill="#F5CF00" cx="35" cy="35" r="35"/><g fill="#000" fill-rule="nonzero"><path d="M31 23l.12.12L31 23zM57.483 42.277c.534.306-2.477 2.979-2.743 3.207-1.218 1.144-2.17 2.213-4.073 1.717.305-2.48.571-4.428-.877-6.564-.534-.803-.459-1.68-.99-2.52-.764-1.147-1.334-2.29-2.019-3.475-.952-1.68-3.236-3.36-3.732-5.152-.571-1.985-1.865-3.78-2.667-5.688 1.143-1.372 2.552-2.022 1.18-3.397-.644-.648-1.025-1.372-1.825-1.907-.686-.496-1.942-.534-2.742-.994-1.143-.649-3.58-.839-4.457.458-.875 1.335-2.437.61-3.387 1.563.343-.153 0-.038.456-.153 0 0 .381.268.306.573-.153-.077-.534.076-.685.115L29 19.715c0 1.107.571 2.253 1.256 3.092.647-.345 1.715.153 2.286.496.837.496 1.714-.764 2.476 0-.647.763-3.504.801-4.57.839.229 1.069 3.046.61 3.923 1.602.115 2.29-.684 3.818-.99 6.03-.343 2.559 1.143 4.352 1.6 6.72.609 3.052-.038 5.955 0 9.005.037 1.985-.8 1.872-1.943 3.207-1.407 1.602 1.79 1.68 2.552.763 1.218-1.45.647-2.52 1.333-4.083.344-.688.228-1.603.344-2.366.115-.88.686-1.565.763-2.48.036.802.836 1.373.608 2.137-.227.993-.608 1.755-.647 2.748-.115 2.253-.915 3.665-1.637 5.648-.534 1.452 1.752.804 2.361.649 1.447-.305.417-1.45.8-2.48.152-.459 1.79-4.81 1.827-4.81.419.305.266 1.642.532 2.1.228.534-1.066.88-1.371.954l-.532 1.755c1.524-.458 3.236-1.26 4.836-.954-1.37 1.373-1.522 2.443.647 2.443 1.333 0 4.076-1.604 4.342-2.976 0 0 2.55-.038 2.817-.076 1.143-.23 1.637-.382 2.286-1.374.566-.912 4.487-4.88 2.584-6.027zM35.015 19.263c-2.4.038-.266-1.642.458 0h-.458zm3.35 4.77c-.382-.84-1.56-5.268-.572-5.498-.534.19.036 6.146 1.752 6.106-.342.155-.915.002-1.18-.609-.342-.726.265.61 0 0z"/><path d="M31.953 29.667c0-.19-.038-.987-.264-1.327.075.189-.114.53-.114.53-1.02.492-.34-.835 0-.644-.415-.343-1.096-.191-1.474-.532-.415-.378-.566-.718-1.133-.795-.226-.037-.83-.037-.907-.303-.114-.378-.415-.795-.678-1.098-.19-.266-.19-.57-.227-.91-.037-.075-.074-.795-.263-.53-.453.57-.492 1.591-.604 2.274-.038.227-.038.53-.152.758-.151.264-.604.872-.867.569-.34-.34-.758-.758-1.208-.872-.34-.038-.982-.038-.945.417.152 2.008 1.285 3.864.567 5.872-.226.644-.718.758-1.322.908-.791.228-1.586.492-2.304.909-.718.378-1.434.834-1.926 1.478-.415.53-.718 1.136-1.019 1.744-.604 1.362-1.096 2.766-1.548 4.167-.152.492-.303 1.024-.453 1.516-.037.075-.151.642-.226.642.114 0 .189-3.256.189-3.484.037-.91.114-1.82.151-2.73.038-.719.075-1.477.34-2.197.378-1.024.982-1.969 1.624-2.84.378-.493 1.019-1.1 1.208-1.668.075-.266.151-.908-.19-1.061-.263-.11-.601.079-.792.23-.567.492-1.056 1.136-1.51 1.742-.605.835-1.209 1.707-1.661 2.652-.492 1.023-.642 1.933-.718 3.031-.114 1.478-.303 2.955-.415 4.469-.075 1.251-.227 2.651.037 3.903.264 1.1.793 2.124 1.36 3.031.452.719.83 1.175 1.51 1.705.642.494 1.474.606 2.267.72.64.075 1.245.036 1.888.036 1.096 0 2.19.114 3.286-.19 1.17-.302 2.53-.34 3.625-.871-.226-.342-.491-.608-.452-1.061.037-.415.114-.797.189-1.213a23 23 0 0 0 .226-3.22c0-1.136-.34-2.084-.567-3.145a20.75 20.75 0 0 1-.415-2.614s.038-.036.075-.036c.189.908.378 1.819.604 2.726.265 1.024.567 1.898.604 2.994 0 1.024-.114 2.085-.226 3.146-.075.34-.152.718-.19 1.098-.074.492 0 .947.453 1.136.453.152 1.246 0 1.7-.189.303-.152.53-.228.492-.758a6.38 6.38 0 0 0-.152-.758c-.074-.303-.377-.53-.566-.797-.114-.151-.075-.492-.075-.68.037-.456.075-.91.151-1.363.114-.872.227-1.744.453-2.577.415-1.705.679-3.447.982-5.151.114-.797.226-1.441.074-2.235-.151-.795-.302-1.59-.566-2.387-.114-.38-.114-.908.075-1.327.114-.264.529-.492.755-.681.378-.342.718-.644 1.057-1.024.375-.378.187-.641.187-1.135zm-3.246-1.402c.302-.114.944.53.944.53-.264.606-.756.757-1.397.643-.34-.035.187-1.059.453-1.173zm1.697 9.624c-.037-.077-.114-.077-.226-.077.114 0 .189 0 .226.077z"/></g></g></svg>