<svg width="70" height="70" viewBox="0 0 70 70" xmlns="http://www.w3.org/2000/svg"><title>Group 37</title><g fill="none" fill-rule="evenodd"><circle fill="#F5CF00" cx="35" cy="35" r="35"/><g fill="#000" fill-rule="nonzero"><path d="M25.001 43H32v-4.59c0-1.775-.812-2.464-2.696-2.464h-2.95V17.288c-.001-.88-.456-1.288-1.357-1.288-.86 0-1.356.429-1.356 1.286v18.658h-2.945c-1.885 0-2.696.69-2.696 2.465v4.59h6.999M42 24a1.001 1.001 0 0 0 0-2 1.001 1.001 0 0 0 0 2zm0-1.137c.075 0 .136.06.136.136 0 .075-.06.135-.136.135a.136.136 0 0 1-.137-.135c0-.076.062-.136.137-.136zM39.5 22a1.5 1.5 0 1 0-1.5-1.5c.002.827.674 1.5 1.5 1.5zm0-1.692a.193.193 0 0 1 0 .385.193.193 0 0 1-.192-.192c0-.106.086-.193.192-.193zM33.5 27c1.378 0 2.5-1.12 2.5-2.5S34.878 22 33.5 22c-1.38 0-2.5 1.12-2.5 2.5s1.12 2.5 2.5 2.5zm0-3.771a1.272 1.272 0 1 1-.002 2.545 1.272 1.272 0 0 1 .001-2.545zM25.5 44l-7.192.004L17 53h17l-1.31-8.996z"/><path d="M51.918 29.43c0-2.442-1.967-4.43-4.382-4.43-1.835 0-3.41 1.147-4.063 2.767a3.525 3.525 0 0 0-2.84-1.45c-1.797 0-3.281 1.36-3.51 3.113h-2.667c0 2.757 2.218 5 4.947 5 2.727 0 4.946-2.243 4.946-5h.003c0-1.774 1.428-3.216 3.184-3.216 1.755 0 3.182 1.442 3.182 3.216H45.55c0 3.425-2.756 6.213-6.147 6.213-3.391 0-6.148-2.788-6.148-6.213H28v.987l.687.003.58 4.106h.438c3.541 0 4.285 2.193 4.285 4.035v5.063l.013.092L35.343 53h13.78l3.19-22.58.687-.003v-.987h-1.082zm-11.39 0h-2.192a2.35 2.35 0 0 1 2.295-1.9 2.35 2.35 0 0 1 2.295 1.9h-2.398z"/></g></g></svg>