<svg width="70" height="70" viewBox="0 0 70 70" xmlns="http://www.w3.org/2000/svg"><title>icon</title><g fill="none" fill-rule="evenodd"><circle fill="#F5CF00" cx="35" cy="35" r="35"/><path d="M54.663 27.575c.45.452.45 1.198 0 1.65a1.13 1.13 0 0 1-1.613 0l-5.636-5.695-1.64 1.65 5.635 5.667c.45.451.45 1.198 0 1.65a1.13 1.13 0 0 1-1.614 0l-5.663-5.695-1.613 1.65 5.635 5.666c.45.452.45 1.198 0 1.65a1.162 1.162 0 0 1-1.64 0l-5.636-5.666-1.613 1.622 5.635 5.667c.45.451.45 1.198 0 1.65a1.162 1.162 0 0 1-1.64 0l-5.636-5.667-1.64 1.622 5.662 5.695c.45.451.45 1.17 0 1.622a1.162 1.162 0 0 1-1.64 0l-5.636-5.667-1.64 1.65 5.635 5.667c.45.452.45 1.17 0 1.622a1.13 1.13 0 0 1-1.613 0l-5.636-5.666L20.93 50.162c-1.138 1.117-2.963 1.117-4.075 0a2.886 2.886 0 0 1 0-4.097l26.062-26.207a2.848 2.848 0 0 1 4.075 0l7.674 7.717h-.002z" fill="#000" fill-rule="nonzero"/></g></svg>