<svg width="70" height="70" viewBox="0 0 70 70" xmlns="http://www.w3.org/2000/svg"><title>icon</title><g fill="none" fill-rule="evenodd"><circle fill="#F5CF00" cx="35" cy="35" r="35"/><g fill="#000" fill-rule="nonzero"><path d="M34.552 15.05L25.985 15a.987.987 0 0 0-.985.985l.05 8.617c0 .246.098.493.296.689l3.005 3.004 5.909 5.96 8.52-8.52.984.985a4.205 4.205 0 0 1 1.181 2.266c.149.985-.148 1.872-.788 2.512L37.853 37.8l2.905 2.904c.394.395 1.035.395 1.379 0l8.567-8.567c.395-.394.395-1.035 0-1.38l-15.413-15.41a.996.996 0 0 0-.739-.297zm-3.053 6.5c-.688.688-1.871.688-2.56 0-.688-.69-.688-1.872 0-2.56.689-.69 1.872-.69 2.56 0 .691.688.691 1.82 0 2.56z"/><path d="M21.877 50.477c1.146 0 2.34-.548 3.238-1.441.249-.249.498-.548.696-.896l3.088-3.082a24.207 24.207 0 0 1 2.292-1.99l.847-.646.15 1.045c.099.994.198 1.938.198 2.785v4.377c-.1.398-.15.796-.15 1.144 0 1.144.348 2.187.946 2.984.648.796 1.494 1.243 2.391 1.243.448 0 .897-.1 1.296-.348.399-.198.798-.548 1.095-.944.648-.796.946-1.84.946-2.984s-.348-2.187-.946-2.983c-.647-.797-1.494-1.244-2.39-1.244-.15 0-.25 0-.4.051l-.696.099v-7.364l9.065-9.05c.348-.348.498-.896.447-1.492-.099-.597-.398-1.145-.846-1.591l-.15-.15-8.517 8.505-2.689-2.636v5.32l-5.329 5.32-.399-.547c-.1-.1-.15-.198-.249-.3a2.937 2.937 0 0 0-2.092-.844c-1.146 0-2.34.548-3.237 1.441-.798.797-1.296 1.791-1.444 2.786-.15 1.045.15 1.938.798 2.585.445.55 1.243.847 2.04.847zm13.698-.048c.3 0 .697.548.697 1.293 0 .797-.448 1.294-.697 1.294-.249 0-.696-.548-.696-1.294-.002-.747.396-1.293.696-1.293zM22.274 46.15c.348-.348.747-.548 1.095-.548.1 0 .25 0 .349.1.198.198.15.895-.448 1.44-.348.349-.747.549-1.095.549-.1 0-.25 0-.349-.1-.198-.198-.099-.893.448-1.44z"/></g></g></svg>