<svg width="70" height="70" viewBox="0 0 70 70" xmlns="http://www.w3.org/2000/svg"><title>icon</title><g fill="none" fill-rule="evenodd"><circle fill="#F5CF00" cx="35" cy="35" r="35"/><path d="M41 30c-2.761 0-5 2.09-5 4.666 0 2.546 2.184 4.614 4.9 4.665-1.263 1.155-2.992 1.869-4.9 1.869V44c5.523-.002 10-4.18 10-9.333C46 32.089 43.761 30 41 30zm-11 0c-2.761 0-5 2.089-5 4.667 0 2.546 2.184 4.614 4.9 4.665-1.263 1.154-2.992 1.868-4.9 1.868V44c5.523 0 10-4.18 10-9.333C35 32.089 32.761 30 30 30z" fill="#000" fill-rule="nonzero"/></g></svg>