<svg width="122" height="134" viewBox="0 0 122 134" xmlns="http://www.w3.org/2000/svg" xmlns:xlink="http://www.w3.org/1999/xlink"><title>Group 31</title><defs><circle id="b" cx="51" cy="65" r="51"/><filter x="-18.6%" y="-10.8%" width="137.3%" height="137.3%" filterUnits="objectBoundingBox" id="a"><feOffset dy="8" in="SourceAlpha" result="shadowOffsetOuter1"/><feGaussianBlur stdDeviation="5" in="shadowOffsetOuter1" result="shadowBlurOuter1"/><feColorMatrix values="0 0 0 0 0 0 0 0 0 0 0 0 0 0 0 0 0 0 0.103855299 0" in="shadowBlurOuter1"/></filter><linearGradient x1="0%" y1="50%" y2="50%" id="c"><stop stop-color="#154881" offset="0%"/><stop stop-color="#3D81D3" offset="100%"/></linearGradient></defs><g fill="none" fill-rule="evenodd"><g transform="translate(10)"><use fill="#000" filter="url(#a)" xlink:href="#b"/><use fill="#FFF" xlink:href="#b"/></g><g transform="translate(41 52)" fill="url(#c)" fill-rule="nonzero"><path d="M25.455 13.79a9.081 9.081 0 0 0-2.53-4.758c-3.566-3.558-9.371-3.558-12.978 0-3.566 3.559-3.566 9.35 0 12.949a9.16 9.16 0 0 0 5.018 2.564l-.954-2.895a7.165 7.165 0 0 1-2.238-1.448 6.582 6.582 0 0 1 0-9.308c2.57-2.564 6.758-2.564 9.328 0a6.019 6.019 0 0 1 1.327 1.944l3.027.952z"/><path d="M17.19 32.7l-.859-2.62c-3.475 0-6.948-1.33-9.65-3.992-5.361-5.366-5.318-14.037 0-19.403a13.685 13.685 0 0 1 19.386 0c2.573 2.575 3.904 5.966 3.99 9.359l2.658.902c.171-4.378-1.458-8.8-4.762-12.15-6.39-6.395-16.77-6.395-23.16 0-6.39 6.396-6.39 16.787 0 23.182 3.432 3.392 7.978 4.98 12.396 4.722z"/><path d="M16.7 13.73a1.603 1.603 0 0 0-1.676.386 1.606 1.606 0 0 0-.386 1.677l7.74 23.28c.387 1.161 1.98 1.247 2.537.171l4.73-9.853c.13-.259.344-.516.645-.645l9.846-4.733c1.119-.516.99-2.152-.171-2.538L16.7 13.729z"/></g><path d="M58.688 26.363c0 5.899-1.221 10.41-3.663 13.535-2.441 3.125-6.015 4.688-10.722 4.688-4.649 0-8.203-1.533-10.664-4.6-2.461-3.066-3.721-7.46-3.78-13.183V18.95c0-5.957 1.236-10.478 3.706-13.564 2.471-3.086 6.03-4.63 10.68-4.63 4.648 0 8.202 1.53 10.663 4.586 2.461 3.056 3.72 7.446 3.78 13.169v7.851zM50.22 17.75c0-3.535-.484-6.108-1.45-7.72-.967-1.611-2.476-2.417-4.527-2.417-1.992 0-3.462.767-4.409 2.3-.947 1.533-1.45 3.93-1.509 7.192v10.372c0 3.476.474 6.06 1.421 7.749.947 1.689 2.466 2.534 4.556 2.534 2.07 0 3.564-.81 4.482-2.432.918-1.621 1.397-4.101 1.436-7.441V17.75zM84.967 44H76.5V11.363l-10.107 3.135V7.613l17.666-6.328h.908V44z" fill="#F5CF00"/></g></svg>