<svg width="122" height="134" viewBox="0 0 122 134" xmlns="http://www.w3.org/2000/svg" xmlns:xlink="http://www.w3.org/1999/xlink"><title>Group 31</title><defs><circle id="b" cx="51" cy="77" r="51"/><filter x="-18.6%" y="-10.8%" width="137.3%" height="137.3%" filterUnits="objectBoundingBox" id="a"><feOffset dy="8" in="SourceAlpha" result="shadowOffsetOuter1"/><feGaussianBlur stdDeviation="5" in="shadowOffsetOuter1" result="shadowBlurOuter1"/><feColorMatrix values="0 0 0 0 0 0 0 0 0 0 0 0 0 0 0 0 0 0 0.103855299 0" in="shadowBlurOuter1"/></filter><linearGradient x1="0%" y1="50%" y2="50%" id="c"><stop stop-color="#154881" offset="0%"/><stop stop-color="#3D81D3" offset="100%"/></linearGradient></defs><g fill="none" fill-rule="evenodd"><g transform="translate(10 -12)"><use fill="#000" filter="url(#a)" xlink:href="#b"/><use fill="#FFF" xlink:href="#b"/></g><path d="M9.521 1.862c.98 1.487 1.636 2.312 2.616 3.798 1.144 1.652.817 3.963-.817 5.119L8.54 12.76c-3.596 2.477 8.503 19.65 11.936 17.173l2.943-1.983c1.636-1.155 3.924-.825 5.069.825.98 1.487 1.471 2.311 2.615 3.798 1.145 1.651 1.145 4.624-.49 5.78C16.713 48.263-10.098 10.614 3.961.539c1.635-1.156 4.415-.331 5.56 1.32v.003zm7.684 6.606c-1.472.496-2.288-1.652-.817-2.146 10.955-4.129 20.438 9.082 12.916 18.328-.98 1.156-2.78-.33-1.799-1.486 6.048-7.267-1.472-18-10.3-14.697zm1.8 4.293c-1.472.497-2.29-1.651-.817-2.31 6.54-2.312 12.262 5.614 7.683 11.063-.98 1.156-2.78-.33-1.799-1.486 2.943-3.632-.817-8.916-5.068-7.267z" transform="translate(45 52)" fill="url(#c)" fill-rule="nonzero"/><path d="M58.688 26.363c0 5.899-1.221 10.41-3.663 13.535-2.441 3.125-6.015 4.688-10.722 4.688-4.649 0-8.203-1.533-10.664-4.6-2.461-3.066-3.721-7.46-3.78-13.183V18.95c0-5.957 1.236-10.478 3.706-13.564 2.471-3.086 6.03-4.63 10.68-4.63 4.648 0 8.202 1.53 10.663 4.586 2.461 3.056 3.72 7.446 3.78 13.169v7.851zM50.22 17.75c0-3.535-.484-6.108-1.45-7.72-.967-1.611-2.476-2.417-4.527-2.417-1.992 0-3.462.767-4.409 2.3-.947 1.533-1.45 3.93-1.509 7.192v10.372c0 3.476.474 6.06 1.421 7.749.947 1.689 2.466 2.534 4.556 2.534 2.07 0 3.564-.81 4.482-2.432.918-1.621 1.397-4.101 1.436-7.441V17.75zM93.639 44H64.4v-5.8l13.8-14.708c1.894-2.07 3.295-3.877 4.203-5.42.909-1.543 1.363-3.008 1.363-4.394 0-1.895-.479-3.384-1.436-4.468s-2.324-1.626-4.101-1.626c-1.915 0-3.423.66-4.527 1.978-1.103 1.318-1.655 3.051-1.655 5.2H63.55c0-2.598.62-4.971 1.86-7.12 1.24-2.148 2.993-3.832 5.259-5.053 2.266-1.22 4.834-1.831 7.705-1.831 4.395 0 7.808 1.054 10.24 3.164 2.43 2.11 3.647 5.088 3.647 8.935 0 2.11-.547 4.258-1.64 6.446-1.095 2.187-2.97 4.736-5.626 7.646L75.3 37.174h18.34V44z" fill="#F5CF00"/></g></svg>