<svg width="122" height="134" viewBox="0 0 122 134" xmlns="http://www.w3.org/2000/svg" xmlns:xlink="http://www.w3.org/1999/xlink"><title>Group 31</title><defs><circle id="b" cx="51" cy="77" r="51"/><filter x="-18.6%" y="-10.8%" width="137.3%" height="137.3%" filterUnits="objectBoundingBox" id="a"><feOffset dy="8" in="SourceAlpha" result="shadowOffsetOuter1"/><feGaussianBlur stdDeviation="5" in="shadowOffsetOuter1" result="shadowBlurOuter1"/><feColorMatrix values="0 0 0 0 0 0 0 0 0 0 0 0 0 0 0 0 0 0 0.103855299 0" in="shadowBlurOuter1"/></filter><linearGradient x1="0%" y1="50%" y2="50%" id="c"><stop stop-color="#154881" offset="0%"/><stop stop-color="#3D81D3" offset="100%"/></linearGradient></defs><g fill="none" fill-rule="evenodd"><g transform="translate(10 -12)"><use fill="#000" filter="url(#a)" xlink:href="#b"/><use fill="#FFF" xlink:href="#b"/></g><path d="M39.999 19.534c-.035-2.254-1.085-2.706-5.915-4.867l-9.694-4.343.209-4.735C24.7 2.534 22.613 0 19.999 0c-2.612 0-4.7 2.543-4.6 5.598l.208 4.735-9.692 4.336C1.085 16.83.035 17.282 0 19.534c0 1.509.137 1.72 1.929 1.481l14.07-1.84c0 6.786.405 9.144 1.675 12.379l-6.221 3.72v.002a.442.442 0 0 0-.214.374v.736a.438.438 0 0 0 .17.363.45.45 0 0 0 .4.076l7.15-2.07.516 1.631a.55.55 0 0 0 .524.377.55.55 0 0 0 .524-.377l.533-1.627 7.151 2.066a.45.45 0 0 0 .4-.076.438.438 0 0 0 .17-.363v-.745a.436.436 0 0 0-.214-.373l-6.245-3.704c1.271-3.243 1.68-5.603 1.68-12.39l14.077 1.841c1.786.238 1.946.028 1.923-1.481z" transform="translate(41 51)" fill="url(#c)" fill-rule="nonzero"/><path d="M58.688 26.363c0 5.899-1.221 10.41-3.663 13.535-2.441 3.125-6.015 4.688-10.722 4.688-4.649 0-8.203-1.533-10.664-4.6-2.461-3.066-3.721-7.46-3.78-13.183V18.95c0-5.957 1.236-10.478 3.706-13.564 2.471-3.086 6.03-4.63 10.68-4.63 4.648 0 8.202 1.53 10.663 4.586 2.461 3.056 3.72 7.446 3.78 13.169v7.851zM50.22 17.75c0-3.535-.484-6.108-1.45-7.72-.967-1.611-2.476-2.417-4.527-2.417-1.992 0-3.462.767-4.409 2.3-.947 1.533-1.45 3.93-1.509 7.192v10.372c0 3.476.474 6.06 1.421 7.749.947 1.689 2.466 2.534 4.556 2.534 2.07 0 3.564-.81 4.482-2.432.918-1.621 1.397-4.101 1.436-7.441V17.75zm22.793 1.172h4.511c2.149 0 3.74-.537 4.776-1.611 1.035-1.075 1.553-2.5 1.553-4.278 0-1.719-.513-3.056-1.539-4.013-1.025-.958-2.436-1.436-4.233-1.436-1.621 0-2.978.444-4.072 1.333-1.094.889-1.64 2.046-1.64 3.472h-8.468c0-2.227.6-4.224 1.802-5.992 1.201-1.767 2.881-3.149 5.04-4.145C72.9 1.256 75.278.758 77.876.758c4.512 0 8.047 1.079 10.605 3.237 2.559 2.158 3.838 5.132 3.838 8.921 0 1.953-.595 3.75-1.787 5.39-1.191 1.641-2.754 2.901-4.687 3.78 2.402.86 4.194 2.148 5.376 3.867 1.181 1.719 1.772 3.75 1.772 6.094 0 3.789-1.382 6.826-4.145 9.111-2.764 2.285-6.421 3.428-10.972 3.428-4.258 0-7.74-1.123-10.444-3.37-2.705-2.245-4.058-5.214-4.058-8.905h8.467c0 1.601.6 2.91 1.802 3.925 1.2 1.016 2.68 1.524 4.438 1.524 2.012 0 3.589-.532 4.731-1.597 1.143-1.064 1.714-2.475 1.714-4.233 0-4.258-2.343-6.387-7.03-6.387h-4.483v-6.621z" fill="#F5CF00"/></g></svg>