<svg width="122" height="134" viewBox="0 0 122 134" xmlns="http://www.w3.org/2000/svg" xmlns:xlink="http://www.w3.org/1999/xlink"><title>Group 31</title><defs><circle id="b" cx="51" cy="77" r="51"/><filter x="-18.6%" y="-10.8%" width="137.3%" height="137.3%" filterUnits="objectBoundingBox" id="a"><feOffset dy="8" in="SourceAlpha" result="shadowOffsetOuter1"/><feGaussianBlur stdDeviation="5" in="shadowOffsetOuter1" result="shadowBlurOuter1"/><feColorMatrix values="0 0 0 0 0 0 0 0 0 0 0 0 0 0 0 0 0 0 0.103855299 0" in="shadowBlurOuter1"/></filter><linearGradient x1="0%" y1="50%" y2="50%" id="c"><stop stop-color="#154881" offset="0%"/><stop stop-color="#3D81D3" offset="100%"/></linearGradient></defs><g fill="none" fill-rule="evenodd"><g transform="translate(10 -12)"><use fill="#000" filter="url(#a)" xlink:href="#b"/><use fill="#FFF" xlink:href="#b"/></g><path d="M15.455 14.337c7.36 0 13.353 5.165 13.534 11.596.172.034.335.067.489.105a4.67 4.67 0 0 1 1.232-1.368c.32-.25.697-.482 1.125-.69l.853 1.784c-.295.138-.55.303-.773.468-.225.179-.41.355-.555.55.111.057.21.124.301.191.875.616 1.172 1.315 1.127 1.922-.029.411-.21.757-.48 1.027a1.846 1.846 0 0 1-.872.478c-.659.154-1.445-.025-1.954-.686a2.433 2.433 0 0 1-.26-.428 3.01 3.01 0 0 1-.282-1.342l-.09-.02c-.439 2.723-1.932 5.154-4.102 6.956l1.493 2.872-3.725 1.942-1.384-2.66a15.134 15.134 0 0 1-5.683 1.098c-2.21 0-4.301-.471-6.147-1.297l-1.487 2.86-3.725-1.943 1.67-3.214c-1.371-1.234-2.443-2.732-3.095-4.402H.344l.004-8.165h2.465c.826-1.884 2.18-3.547 3.913-4.835l-.433-4.26c2.393.861 5.875 2.428 6.832 5.075l.873-.145-1.107-3.259c.832-.138 1.687-.21 2.565-.21zM15.752.302a6.238 6.238 0 0 1 6.24 6.24 6.24 6.24 0 0 1-6.24 6.242 6.24 6.24 0 1 1 0-12.482z" transform="translate(45 49)" fill="url(#c)" fill-rule="nonzero"/><path d="M58.688 26.363c0 5.899-1.221 10.41-3.663 13.535-2.441 3.125-6.015 4.688-10.722 4.688-4.649 0-8.203-1.533-10.664-4.6-2.461-3.066-3.721-7.46-3.78-13.183V18.95c0-5.957 1.236-10.478 3.706-13.564 2.471-3.086 6.03-4.63 10.68-4.63 4.648 0 8.202 1.53 10.663 4.586 2.461 3.056 3.72 7.446 3.78 13.169v7.851zM50.22 17.75c0-3.535-.484-6.108-1.45-7.72-.967-1.611-2.476-2.417-4.527-2.417-1.992 0-3.462.767-4.409 2.3-.947 1.533-1.45 3.93-1.509 7.192v10.372c0 3.476.474 6.06 1.421 7.749.947 1.689 2.466 2.534 4.556 2.534 2.07 0 3.564-.81 4.482-2.432.918-1.621 1.397-4.101 1.436-7.441V17.75zm39.228 10.195h4.834v6.826H89.45V44h-8.467v-9.229h-17.49l-.38-5.332L80.894 1.344h8.554v26.601zm-17.9 0h9.433V12.887l-.556.967-8.877 14.091z" fill="#F5CF00"/></g></svg>