<svg width="73" height="60" viewBox="0 0 73 60" xmlns="http://www.w3.org/2000/svg"><title>np_dangerous-love_1715748_000000</title><path d="M32.996 15.668v21.5h6.886v-21.5h-6.886zM30.487 3.44c1.837 1.457 3.861 3.377 6.075 5.749 2.322-2.59 4.428-4.507 6.319-5.749C46.01 1.283 49.275.203 52.677.203c2.699 0 5.264.484 7.693 1.456a19.01 19.01 0 0 1 6.154 4.13 18.62 18.62 0 0 1 4.374 6.237c1.134 2.483 1.809 5.02 2.024 7.61a22.23 22.23 0 0 1-1.216 8.584c-.646 1.888-1.647 3.832-2.996 5.83-1.134 1.727-3.158 3.995-6.075 6.804a119.883 119.883 0 0 1-9.315 8.663c-3.617 3.021-6.857 5.425-9.72 7.208-3.287 2.046-5.637 3.073-7.04 3.073-2.864 0-8.422-3.402-16.685-10.202a221.87 221.87 0 0 1-8.748-7.772C7.94 38.64 5.673 36.047 4.324 34.05c-1.565-2.321-2.674-4.697-3.32-7.126-.757-2.268-1.08-4.697-.972-7.288.215-2.59.89-5.128 2.024-7.61A20.33 20.33 0 0 1 6.43 5.79a18.83 18.83 0 0 1 6.236-4.13C15.096.688 17.661.203 20.359.203c3.459 0 6.835 1.08 10.129 3.237zm2.55 38.464v6.961h6.924v-6.961h-6.924z" fill="#FF7C8C" fill-rule="nonzero"/></svg>