<svg width="70" height="70" viewBox="0 0 70 70" xmlns="http://www.w3.org/2000/svg"><title>icon</title><g fill="none" fill-rule="evenodd"><circle fill="#F5CF00" cx="35" cy="35" r="35"/><g fill="#000" fill-rule="nonzero"><path d="M32.868 34.409v-.002c0-.015-.006-.03-.008-.046-.108.081-.215.15-.319.218a5.83 5.83 0 0 0-.587.372c-.162.116-2.157 4.274-2.339 6.268.247.258.83.767 1.204 1.012.397.257.132.982-.452.61-.114-.073-.45-.355-.787-.641-.019.282-.025.533-.037.738-.032.532-.78.542-.773-.023.004-.244.05-1.202.174-2.376-.63.56-1.437 1.29-1.448 1.302a.395.395 0 0 1-.545-.027.39.39 0 0 1 .027-.55c.07-.06 1.634-1.483 2.11-1.869.243-.886.674-1.79.906-2.543-.727.429-2.108.816-2.966 1.05-.004 0-.004.004-.004.004-.263.267-.54 1.013-.664 1.496a.384.384 0 0 1-.472.278.39.39 0 0 1-.278-.472c.035-.139.159-.587.363-1.039-.382.085-.637.131-.676.14-.023.003-.046.007-.07.007a.388.388 0 0 1-.069-.769c.02 0 2.696-.471 4.431-1.557.347-.216 1.793-1.727 1.897-1.931-.337-.125-1.696.25-1.804.266l-1.623 1.032c-.11.073-.376.128-.533-.12a.387.387 0 0 1 .12-.533l1.016-.645-1.553-.545a.388.388 0 0 1 .255-.73l2.202.772c1.088-.19 2.237-.586 3.023-1.088-.002-.004-.002-.009-.003-.013-.17-1.407.014-2.225.1-3.063.085-.873.087-.885 0 0 .147-1.49.308-2.888.087-3.784-.125-.555-.575-1.084-1.128-1.084-1.999 0-7.53 3.48-9.791 11.74-.357 1.3-.56 2.755-.643 4.224-.145 2.457.044 4.955.4 6.845.016.07.052.148.23.244.277.154.713.214 1.255.223-.542-.009-.978-.086-1.254-.238-.178-.097-.212-.202-.228-.272-.28-1.498-.458-3.371-.445-5.303-.01 1.938.167 3.816.448 5.304.015.07.05.17.228.267.275.153.712.224 1.254.233 2.349.039 6.681-1.09 8.54-1.81.598-.313 1.004-.992 1.264-1.915.649-2.3.399-6.124-.034-9.659l-.001.001zM48.853 36.266c-2.394-8.74-8.43-12.12-10.096-11.706-1.22.305-.983 2.503-.75 4.833.08.838.253 1.737.071 3.164.777.46 1.712.738 2.318.885.383.096.638.135.646.135.13.016.378.144.32.44-.075.376-.458.318-.517.313-.109-.02-1.32-.327-1.809-.27.155.301.715.958 1.901 1.931.618.506 1.808.908 2.801 1.182a.45.45 0 0 1 .07.016c.853.228 1.541.36 1.557.36.208.038.347.239.309.451a.382.382 0 0 1-.379.317c-.023 0-.046-.004-.07-.008-.034-.007-.293-.054-.672-.139.201.452.325.9.36 1.04a.381.381 0 0 1-.279.47.419.419 0 0 1-.47-.277c-.125-.483-.407-1.237-.67-1.5-.86-.239-1.87-.575-2.595-1.008.235.754.41 1.638.533 2.496.463.375 2.043 1.812 2.117 1.874.45.36-.008 1.014-.522.575-.011-.011-.815-.741-1.448-1.305.123 1.174.158 2.136.173 2.375.034.526-.708.598-.772.031-.023-.207-.02-.455-.039-.741-.332.286-.68.56-.784.64a.39.39 0 0 1-.545-.069.383.383 0 0 1 .07-.54c.355-.279.935-.754 1.182-1.013-.178-1.954-.572-4.55-1.31-5.408a7.991 7.991 0 0 1-.947-1.008c-.026-.008-.494-.21-.78-.325-.602 4.933-.842 10.416 1.237 11.505 2.29.884 8.325 2.391 9.793 1.576.178-.097.216-.197.228-.267.563-2.994.719-7.564-.232-11.025zM36.537 28.94c-.06-2.796-.182-7.857-.179-10.612a.195.195 0 0 0-.198-.195h-1.792c-.112 0-.2.088-.198.2.043 2.371-.073 6.237-.139 8.825l-.042 1.806c-.043 1.839-.364 2.542-.673 2.901-.004.016.081.647.124.944 0 0 .136 1.021.167 1.273a5.583 5.583 0 0 1 1.8-.304c.397 0 1.05.189 1.676.413l.166-1.252c.043-.297.081-.598.128-.896-.346-.313-.79-.936-.84-3.104z"/></g></g></svg>