<svg width="70" height="70" viewBox="0 0 70 70" xmlns="http://www.w3.org/2000/svg"><title>icon</title><g fill="none" fill-rule="evenodd"><circle fill="#F5CF00" cx="35" cy="35" r="35"/><g fill="#000" fill-rule="nonzero"><path d="M43.191 39.278c-.458.412.094 1.292-.197 1.694-.277.383-1.09-.222-1.135.122-.05.395 1.085.726.619 1.094-1.94 1.53-.204 2.13-1.548 3.357-1.524 1.388-3.118-1.27-4.312-.413-.821.59-.856 2.647-1.322 4.539-3.677-1.698-8.17-2.066-10.14-4.379 1.554-3.607 1.698-6.072.512-8.764-1.177-2.676-3.142-5.08-2.564-8.525 1.208-7.213 7.531-8.9 13.278-7.602 5.372 1.213 9.482 5.339 8.411 11.005-.196 1.04-1.142 1.855-.844 2.826.577 1.877 2.042 3.996 1.508 4.844-.636 1.014-1.703-.304-2.266.202zM44.588 40.447c-.183.748-.724.952-.73 1.497-.004.373.247.748.73.748.447 0 .73-.374.73-.748 0-.534-.548-.749-.73-1.497zM43.83 43.874c-.183.748-.724.952-.73 1.496-.004.374.247.749.73.749.447 0 .73-.374.73-.749 0-.533-.549-.748-.73-1.496zM45.347 46.17c-.183.748-.724.952-.73 1.497-.004.373.247.748.73.748.447 0 .73-.374.73-.748 0-.534-.549-.749-.73-1.497z"/></g></g></svg>