<?xml version="1.0" encoding="UTF-8"?>
<svg width="382px" height="101px" viewBox="0 0 382 101" version="1.1" xmlns="http://www.w3.org/2000/svg" xmlns:xlink="http://www.w3.org/1999/xlink">
    <!-- Generator: Sketch 49 (51002) - http://www.bohemiancoding.com/sketch -->
    <title>Group 35</title>
    <desc>Created with Sketch.</desc>
    <defs></defs>
    <g id="Page-1" stroke="none" stroke-width="1" fill="none" fill-rule="evenodd">
        <g id="petpal_design" transform="translate(-733.000000, -88.000000)">
            <g id="sec-1" transform="translate(-182.000000, -82.000000)">
                <g id="Group-35" transform="translate(915.000000, 170.000000)">
                    <g id="logo" transform="translate(0.000000, 7.000000)">
                        <path d="M0.263087248,29 L27.5530201,29 C33.496674,29 37.9483073,30.4134087 40.9080537,33.2402685 C43.8678,36.0671282 45.347651,40.0899068 45.347651,45.3087248 C45.347651,50.67251 43.7349155,54.8644144 40.509396,57.8845638 C37.2838765,60.9047131 32.3611069,62.4147651 25.7409396,62.4147651 L16.7530201,62.4147651 L16.7530201,82.1302013 L0.263087248,82.1302013 L0.263087248,29 Z M16.7530201,51.6510067 L20.7758389,51.6510067 C23.9409554,51.6510067 26.163752,51.1013478 27.4442953,50.0020134 C28.7248386,48.9026791 29.3651007,47.4953106 29.3651007,45.7798658 C29.3651007,44.1127433 28.8094015,42.6993347 27.6979866,41.5395973 C26.5865716,40.37986 24.4966596,39.8 21.4281879,39.8 L16.7530201,39.8 L16.7530201,51.6510067 Z M93.766443,66.5463087 L64.1932886,66.5463087 C64.4590617,68.9141058 65.0993238,70.6778466 66.114094,71.8375839 C67.5396044,73.5047063 69.3999885,74.338255 71.695302,74.338255 C73.1449737,74.338255 74.5221411,73.9758426 75.8268456,73.2510067 C76.6241651,72.791944 77.4818746,71.9825561 78.4,70.8228188 L92.9328859,72.1637584 C90.710056,76.0295495 88.0282036,78.802005 84.8872483,80.4812081 C81.746293,82.1604111 77.2402978,83 71.3691275,83 C66.2711154,83 62.2604173,82.2812152 59.3369128,80.8436242 C56.4134082,79.4060331 53.9912848,77.1228344 52.0704698,73.9939597 C50.1496548,70.865085 49.1892617,67.1865983 49.1892617,62.9583893 C49.1892617,56.9422518 51.1160881,52.0738441 54.9697987,48.3530201 C58.8235092,44.6321962 64.1449325,42.7718121 70.9342282,42.7718121 C76.4429806,42.7718121 80.7919304,43.6053608 83.9812081,45.2724832 C87.1704857,46.9396057 89.5986494,49.3556889 91.2657718,52.5208054 C92.9328942,55.6859219 93.766443,59.8053438 93.766443,64.8791946 L93.766443,66.5463087 Z M78.7624161,59.4791946 C78.4724818,56.6281737 77.7053753,54.5865833 76.4610738,53.3543624 C75.2167723,52.1221415 73.5798759,51.5060403 71.5503356,51.5060403 C69.2066997,51.5060403 67.3342352,52.4362323 65.9328859,54.2966443 C65.0389217,55.4563816 64.4711421,57.1838811 64.2295302,59.4791946 L78.7624161,59.4791946 Z M118.338255,29 L118.338255,43.6416107 L126.456376,43.6416107 L126.456376,54.4053691 L118.338255,54.4053691 L118.338255,68.0684564 C118.338255,69.7114176 118.4953,70.7986551 118.809396,71.3302013 C119.29262,72.151682 120.138249,72.5624161 121.346309,72.5624161 C122.433562,72.5624161 123.955695,72.2483253 125.912752,71.6201342 L127,81.8040268 C123.35166,82.6013463 119.944982,83 116.779866,83 C113.107364,83 110.401351,82.5288638 108.661745,81.5865772 C106.922139,80.6442906 105.635575,79.2127613 104.802013,77.2919463 C103.968452,75.3711313 103.551678,72.2604242 103.551678,67.9597315 L103.551678,54.4053691 L98.1154362,54.4053691 L98.1154362,43.6416107 L103.551678,43.6416107 L103.551678,36.5744966 L118.338255,29 Z" id="Pet" fill="#000000"></path>
                        <path d="M267,29 L294.001871,29 C299.882786,29 304.287429,30.4134087 307.215934,33.2402685 C310.144438,36.0671282 311.608669,40.0899068 311.608669,45.3087248 C311.608669,50.67251 310.012956,54.8644144 306.821484,57.8845638 C303.630012,60.9047131 298.759205,62.4147651 292.208918,62.4147651 L283.315872,62.4147651 L283.315872,82.1302013 L267,82.1302013 L267,29 Z M283.315872,51.6510067 L287.296227,51.6510067 C290.427934,51.6510067 292.627267,51.1013478 293.894294,50.0020134 C295.16132,48.9026791 295.794824,47.4953106 295.794824,45.7798658 C295.794824,44.1127433 295.24499,42.6993347 294.145307,41.5395973 C293.045624,40.37986 290.977772,39.8 287.94169,39.8 L283.315872,39.8 L283.315872,51.6510067 Z M331.187714,56.1087248 L317.238541,54.6228188 C317.764476,52.1583769 318.523485,50.2194702 319.515591,48.8060403 C320.507696,47.3926104 321.936068,46.1664481 323.800748,45.1275168 C325.139493,44.3785197 326.98024,43.7986598 329.323043,43.3879195 C331.665847,42.9771792 334.199862,42.7718121 336.925164,42.7718121 C341.299991,42.7718121 344.814143,43.0194606 347.467727,43.5147651 C350.12131,44.0100696 352.332597,45.0429452 354.101653,46.6134228 C355.344773,47.7006766 356.324911,49.2409296 357.042095,51.2342282 C357.75928,53.2275267 358.117867,55.1301923 358.117867,56.9422819 L358.117867,73.9395973 C358.117867,75.7516869 358.23142,77.1711358 358.458528,78.1979866 C358.685637,79.2248373 359.181682,80.5355625 359.946679,82.1302013 L346.248519,82.1302013 C345.698677,81.1395924 345.34009,80.3845664 345.172747,79.8651007 C345.005404,79.345635 344.838063,78.5302069 344.67072,77.4187919 C342.758228,79.2792039 340.857717,80.6080497 338.96913,81.4053691 C336.387265,82.4684617 333.387087,83 329.968506,83 C325.426336,83 321.977925,81.9369234 319.623168,79.8107383 C317.268411,77.6845531 316.091051,75.0631028 316.091051,71.9463087 C316.091051,69.0228042 316.939707,66.6188014 318.637044,64.7342282 C320.334381,62.849655 323.466041,61.4483267 328.032117,60.5302013 C333.506628,59.4187864 337.056639,58.6395996 338.682258,58.1926174 C340.307876,57.7456353 342.029094,57.1597352 343.845962,56.4348993 C343.845962,54.6228097 343.475422,53.354366 342.734331,52.6295302 C341.99324,51.9046944 340.690374,51.5422819 338.825694,51.5422819 C336.435078,51.5422819 334.642143,51.9288552 333.446835,52.7020134 C332.514495,53.3060433 331.761462,54.4416024 331.187714,56.1087248 Z M343.845962,63.8644295 C341.837845,64.5892654 339.746087,65.2295274 337.570627,65.7852349 C334.606263,66.5825543 332.729658,67.3677814 331.940755,68.1409396 C331.127945,68.938259 330.721547,69.8442902 330.721547,70.8590604 C330.721547,72.0187977 331.121969,72.9671104 331.922825,73.7040268 C332.723681,74.4409433 333.901042,74.809396 335.454942,74.809396 C337.080561,74.809396 338.592603,74.4107422 339.991113,73.6134228 C341.389623,72.8161034 342.381714,71.8436299 342.967415,70.6959732 C343.553116,69.5483164 343.845962,68.056385 343.845962,66.2201342 L343.845962,63.8644295 Z M367.369504,29 L382,29 L382,82.1302013 L367.369504,82.1302013 L367.369504,29 Z" id="Pal" fill="#2A2724"></path>
                        <g id="np_pet_1307711_000000" transform="translate(144.000000, 0.000000)" fill="#F5CF00" fill-rule="nonzero">
                            <path d="M61.6667269,49.4313005 L76.9547269,69.5265238 C81.1315891,75.0168151 80.0666493,82.8577083 74.576358,87.0348733 C72.399224,88.6914015 69.7446998,89.5867102 67.0114182,89.5867102 L36.4364279,89.5867102 C29.5380978,89.5867102 23.9412823,83.9938325 23.9412823,77.0915646 C23.9412823,74.358283 24.8366112,71.6999219 26.4931192,69.5266248 L41.7811192,49.4314015 C45.9579813,43.9411102 53.7986726,42.8761704 59.2894687,47.0530325 C60.1847976,47.7353735 60.9854765,48.5360927 61.6678376,49.4314015 L61.6667269,49.4313005 Z M39.1017561,13.8592617 C43.7480318,13.8592617 47.5146493,17.6259801 47.5146493,22.2721549 L47.5146493,26.4806209 C47.5146493,31.1268966 43.7479308,34.8935141 39.1017561,34.8935141 C34.4555813,34.8935141 30.6888629,31.1267956 30.6888629,26.4806209 L30.6888629,22.2721549 C30.6888629,17.6258791 34.4555813,13.8592617 39.1017561,13.8592617 Z M22.2719308,34.8935141 C26.9221444,34.8935141 30.6887619,38.6602325 30.6887619,43.3103452 L30.6887619,47.5148733 C30.6887619,52.1650869 26.9220434,55.9317044 22.2719308,55.9317044 C17.6256551,55.9317044 13.8590376,52.1649859 13.8590376,47.5148733 L13.8590376,43.3103452 C13.8590376,38.6601316 17.6257561,34.8935141 22.2719308,34.8935141 Z M64.3444745,13.8592617 C68.9907502,13.8592617 72.7573677,17.6259801 72.7573677,22.2721549 L72.7573677,26.4806209 C72.7573677,31.1268966 68.9906493,34.8935141 64.3444745,34.8935141 C59.6982998,34.8935141 55.9315813,31.1267956 55.9315813,26.4806209 L55.9315813,22.2721549 C55.9315813,17.6258791 59.6982998,13.8592617 64.3444745,13.8592617 Z M81.1742998,34.8935141 C85.8205755,34.8935141 89.587193,38.6602325 89.587193,43.3103452 L89.587193,47.5148733 C89.587193,52.1650869 85.8204745,55.9317044 81.1742998,55.9317044 C76.5240862,55.9317044 72.7574687,52.1649859 72.7574687,47.5148733 L72.7574687,43.3103452 C72.7574687,38.6601316 76.5241871,34.8935141 81.1742998,34.8935141 Z" id="Shape" transform="translate(51.723115, 51.722986) rotate(-30.000000) translate(-51.723115, -51.722986) "></path>
                        </g>
                    </g>
                    <path d="M271.641113,4.47851562 L273.507324,1.046875 L275.865723,1.046875 L272.967285,5.98242188 L275.940918,11 L273.555176,11 L271.641113,7.51367188 L269.727051,11 L267.341309,11 L270.314941,5.98242188 L267.416504,1.046875 L269.774902,1.046875 L271.641113,4.47851562 Z M281.300293,3.60351562 L283.275879,3.60351562 L283.275879,11 L281.300293,11 L281.300293,6.43359375 L278.825684,11 L276.843262,11 L276.843262,3.60351562 L278.825684,3.60351562 L278.825684,8.16308594 L281.300293,3.60351562 Z M290.925293,5.18945312 L288.553223,5.18945312 L288.553223,11 L286.570801,11 L286.570801,5.18945312 L284.239746,5.18945312 L284.239746,3.60351562 L290.925293,3.60351562 L290.925293,5.18945312 Z M301.835449,11 L299.853027,11 L299.853027,5.203125 L297.378418,5.203125 L297.378418,11 L295.402832,11 L295.402832,3.60351562 L301.835449,3.60351562 L301.835449,11 Z M310.004395,7.37011719 C310.004395,8.5094458 309.745771,9.42203433 309.228516,10.1079102 C308.71126,10.793786 308.012862,11.1367188 307.133301,11.1367188 C306.385901,11.1367188 305.782066,10.8769557 305.321777,10.3574219 L305.321777,13.84375 L303.346191,13.84375 L303.346191,3.60351562 L305.178223,3.60351562 L305.246582,4.328125 C305.7251,3.75390338 306.349443,3.46679688 307.119629,3.46679688 C308.031092,3.46679688 308.739744,3.80403309 309.245605,4.47851562 C309.751467,5.15299816 310.004395,6.08267637 310.004395,7.26757812 L310.004395,7.37011719 Z M308.028809,7.2265625 C308.028809,6.53840802 307.906902,6.00748885 307.663086,5.63378906 C307.41927,5.26008928 307.064944,5.07324219 306.600098,5.07324219 C305.980303,5.07324219 305.5542,5.31021898 305.321777,5.78417969 L305.321777,8.8125 C305.563315,9.30013265 305.993975,9.54394531 306.61377,9.54394531 C307.557134,9.54394531 308.028809,8.7714921 308.028809,7.2265625 Z M310.92041,7.23339844 C310.92041,6.49967081 311.061685,5.845706 311.344238,5.27148438 C311.626792,4.69726275 312.033526,4.25293126 312.564453,3.93847656 C313.09538,3.62402187 313.711748,3.46679688 314.413574,3.46679688 C315.411626,3.46679688 316.226234,3.77213236 316.857422,4.3828125 C317.48861,4.99349264 317.840657,5.82291143 317.913574,6.87109375 L317.927246,7.37695312 C317.927246,8.51172442 317.610517,9.42203433 316.977051,10.1079102 C316.343584,10.793786 315.493658,11.1367188 314.427246,11.1367188 C313.360835,11.1367188 312.509769,10.7949253 311.874023,10.1113281 C311.238278,9.42773096 310.92041,8.49805275 310.92041,7.32226562 L310.92041,7.23339844 Z M312.895996,7.37695312 C312.895996,8.07877955 313.028156,8.61539528 313.29248,8.98681641 C313.556805,9.35823753 313.935056,9.54394531 314.427246,9.54394531 C314.905764,9.54394531 315.279458,9.36051616 315.54834,8.99365234 C315.817221,8.62678853 315.95166,8.0400431 315.95166,7.23339844 C315.95166,6.54524396 315.817221,6.01204616 315.54834,5.63378906 C315.279458,5.25553196 314.901207,5.06640625 314.413574,5.06640625 C313.930499,5.06640625 313.556805,5.25439265 313.29248,5.63037109 C313.028156,6.00634954 312.895996,6.58853772 312.895996,7.37695312 Z M318.754395,9.40722656 C319.201011,8.93326586 319.504068,8.46386951 319.663574,7.99902344 C319.82308,7.53417736 319.911947,6.8756553 319.930176,6.0234375 L319.984863,3.60351562 L325.42627,3.60351562 L325.42627,9.40722656 L326.492676,9.40722656 L326.492676,13.2216797 L324.51709,13.2216797 L324.51709,11 L320.135254,11 L320.135254,13.2216797 L318.118652,13.2216797 L318.118652,9.40722656 L318.754395,9.40722656 Z M321.085449,9.40722656 L323.45752,9.40722656 L323.45752,5.23730469 L321.919434,5.23730469 L321.905762,6.12597656 C321.864746,7.48405627 321.591311,8.57779533 321.085449,9.40722656 Z M331.776855,11 C331.685709,10.8222647 331.619629,10.6012383 331.578613,10.3369141 C331.100095,10.8701199 330.478031,11.1367188 329.712402,11.1367188 C328.987789,11.1367188 328.387372,10.9270854 327.911133,10.5078125 C327.434893,10.0885396 327.196777,9.55989902 327.196777,8.921875 C327.196777,8.13801691 327.487302,7.53646043 328.068359,7.1171875 C328.649417,6.69791457 329.48909,6.48600263 330.587402,6.48144531 L331.496582,6.48144531 L331.496582,6.05761719 C331.496582,5.7158186 331.408855,5.44238384 331.233398,5.23730469 C331.057942,5.03222554 330.781089,4.9296875 330.402832,4.9296875 C330.070148,4.9296875 329.809246,5.00943931 329.620117,5.16894531 C329.430989,5.32845132 329.336426,5.54719913 329.336426,5.82519531 L327.36084,5.82519531 C327.36084,5.39680775 327.493,5.00032734 327.757324,4.63574219 C328.021648,4.27115703 328.395343,3.98518984 328.878418,3.77783203 C329.361493,3.57047422 329.903806,3.46679688 330.505371,3.46679688 C331.416834,3.46679688 332.140297,3.69579849 332.675781,4.15380859 C333.211266,4.6118187 333.479004,5.25552971 333.479004,6.08496094 L333.479004,9.29101562 C333.483561,9.99284205 333.581542,10.5237612 333.772949,10.8837891 L333.772949,11 L331.776855,11 Z M330.143066,9.62597656 C330.434735,9.62597656 330.703612,9.56103581 330.949707,9.43115234 C331.195802,9.30126888 331.378092,9.12695422 331.496582,8.90820312 L331.496582,7.63671875 L330.758301,7.63671875 C329.769364,7.63671875 329.243002,7.97851221 329.179199,8.66210938 L329.172363,8.77832031 C329.172363,9.02441529 329.258951,9.22721274 329.432129,9.38671875 C329.605307,9.54622476 329.842284,9.62597656 330.143066,9.62597656 Z M342.112793,8.25878906 L341.217285,8.25878906 L341.217285,11 L339.241699,11 L339.241699,8.25878906 L338.359863,8.25878906 L336.890137,11 L334.504395,11 L336.835449,7.13085938 L334.531738,3.60351562 L336.979004,3.60351562 L338.51709,6.36523438 L339.241699,6.36523438 L339.241699,3.60351562 L341.217285,3.60351562 L341.217285,6.36523438 L341.955566,6.36523438 L343.500488,3.60351562 L345.947754,3.60351562 L343.657715,7.08300781 L346.009277,11 L343.58252,11 L342.112793,8.25878906 Z M357.179199,11 L350.356934,11 L350.356934,9.64648438 L353.57666,6.21484375 C354.01872,5.73176842 354.345702,5.31022315 354.557617,4.95019531 C354.769532,4.59016747 354.875488,4.24837401 354.875488,3.92480469 C354.875488,3.48274519 354.763836,3.13525517 354.540527,2.88232422 C354.317219,2.62939327 353.998212,2.50292969 353.583496,2.50292969 C353.136879,2.50292969 352.784832,2.65673674 352.527344,2.96435547 C352.269855,3.27197419 352.141113,3.67642979 352.141113,4.17773438 L350.158691,4.17773438 C350.158691,3.57161155 350.303384,3.01790615 350.592773,2.51660156 C350.882163,2.01529697 351.291176,1.6222345 351.819824,1.33740234 C352.348473,1.05257019 352.947751,0.91015625 353.617676,0.91015625 C354.643072,0.91015625 355.43945,1.15624754 356.006836,1.6484375 C356.574222,2.14062746 356.85791,2.83560749 356.85791,3.73339844 C356.85791,4.2255884 356.730307,4.72688547 356.475098,5.23730469 C356.219888,5.74772391 355.782392,6.34244452 355.162598,7.02148438 L352.899902,9.40722656 L357.179199,9.40722656 L357.179199,11 Z M365.088379,6.88476562 C365.088379,8.26107459 364.803551,9.31379844 364.233887,10.0429688 C363.664222,10.7721391 362.830246,11.1367188 361.731934,11.1367188 C360.647293,11.1367188 359.817874,10.7789749 359.243652,10.0634766 C358.669431,9.34797819 358.375488,8.32259782 358.361816,6.98730469 L358.361816,5.15527344 C358.361816,3.76529253 358.650062,2.71029006 359.226562,1.99023438 C359.803063,1.27017869 360.633621,0.91015625 361.718262,0.91015625 C362.802903,0.91015625 363.632321,1.26676076 364.206543,1.97998047 C364.780765,2.69320018 365.074707,3.71744124 365.088379,5.05273438 L365.088379,6.88476562 Z M363.112793,4.875 C363.112793,4.05012608 363.000001,3.44970891 362.774414,3.07373047 C362.548827,2.69775203 362.19678,2.50976562 361.718262,2.50976562 C361.253416,2.50976562 360.910483,2.68863753 360.689453,3.04638672 C360.468423,3.4041359 360.351074,3.96353786 360.337402,4.72460938 L360.337402,7.14453125 C360.337402,7.95573322 360.447916,8.55842902 360.668945,8.95263672 C360.889975,9.34684442 361.244301,9.54394531 361.731934,9.54394531 C362.215009,9.54394531 362.563638,9.3548196 362.777832,8.9765625 C362.992026,8.5983054 363.103678,8.01953515 363.112793,7.24023438 L363.112793,4.875 Z M371.220215,11 L369.244629,11 L369.244629,3.38476562 L366.88623,4.11621094 L366.88623,2.50976562 L371.008301,1.03320312 L371.220215,1.03320312 L371.220215,11 Z M380.940918,3.69238281 C380.940918,4.17545814 380.820151,4.60383928 380.578613,4.97753906 C380.337076,5.35123885 380.004397,5.64973847 379.580566,5.87304688 C380.063642,6.10546991 380.44645,6.42561645 380.729004,6.83349609 C381.011557,7.24137574 381.152832,7.72102589 381.152832,8.27246094 C381.152832,9.15657994 380.852054,9.85497791 380.250488,10.3676758 C379.648923,10.8803737 378.830897,11.1367188 377.796387,11.1367188 C376.761876,11.1367188 375.941572,10.8792343 375.335449,10.3642578 C374.729326,9.84928128 374.42627,9.15202263 374.42627,8.27246094 C374.42627,7.72102589 374.567544,7.24023643 374.850098,6.83007812 C375.132651,6.41991982 375.513181,6.1009126 375.991699,5.87304688 C375.567869,5.64973847 375.236329,5.35123885 374.99707,4.97753906 C374.757811,4.60383928 374.638184,4.17545814 374.638184,3.69238281 C374.638184,2.84472232 374.920733,2.16911059 375.48584,1.66552734 C376.050947,1.1619441 376.818843,0.91015625 377.789551,0.91015625 C378.755701,0.91015625 379.522458,1.15966547 380.089844,1.65869141 C380.657229,2.15771734 380.940918,2.8356077 380.940918,3.69238281 Z M379.17041,8.12890625 C379.17041,7.69596138 379.045086,7.34961067 378.794434,7.08984375 C378.543781,6.83007683 378.206545,6.70019531 377.782715,6.70019531 C377.363442,6.70019531 377.028484,6.82893751 376.777832,7.08642578 C376.52718,7.34391405 376.401855,7.69140406 376.401855,8.12890625 C376.401855,8.55273649 376.524901,8.89452995 376.770996,9.15429688 C377.017091,9.4140638 377.358885,9.54394531 377.796387,9.54394531 C378.224774,9.54394531 378.560871,9.41862104 378.804688,9.16796875 C379.048504,8.91731646 379.17041,8.57096575 379.17041,8.12890625 Z M378.965332,3.78808594 C378.965332,3.40071421 378.862794,3.08968216 378.657715,2.85498047 C378.452636,2.62027877 378.163251,2.50292969 377.789551,2.50292969 C377.420408,2.50292969 377.133302,2.61686084 376.928223,2.84472656 C376.723144,3.07259229 376.620605,3.38704227 376.620605,3.78808594 C376.620605,4.18457229 376.723144,4.50357952 376.928223,4.74511719 C377.133302,4.98665485 377.422687,5.10742188 377.796387,5.10742188 C378.170087,5.10742188 378.458332,4.98665485 378.661133,4.74511719 C378.863933,4.50357952 378.965332,4.18457229 378.965332,3.78808594 Z" id="Хит-продаж-2018" fill="#F5CF00"></path>
                </g>
            </g>
        </g>
    </g>
</svg>