<svg width="382" height="83" viewBox="0 0 382 83" xmlns="http://www.w3.org/2000/svg"><title>logo</title><g fill="none" fill-rule="evenodd"><path d="M.263 18h27.29c5.944 0 10.395 1.413 13.355 4.24 2.96 2.827 4.44 6.85 4.44 12.069 0 5.364-1.613 9.555-4.839 12.576-3.225 3.02-8.148 4.53-14.768 4.53h-8.988V71.13H.263V18zm16.49 22.651h4.023c3.165 0 5.388-.55 6.668-1.649 1.28-1.1 1.921-2.507 1.921-4.222 0-1.667-.556-3.08-1.667-4.24-1.111-1.16-3.201-1.74-6.27-1.74h-4.675v11.851zm77.013 14.895H64.193c.266 2.368.906 4.132 1.921 5.292 1.426 1.667 3.286 2.5 5.581 2.5 1.45 0 2.827-.362 4.132-1.087.797-.46 1.655-1.268 2.573-2.428l14.533 1.34c-2.223 3.867-4.905 6.639-8.046 8.318C81.747 71.161 77.24 72 71.37 72c-5.098 0-9.109-.719-12.032-2.156-2.924-1.438-5.346-3.721-7.267-6.85-1.92-3.129-2.88-6.807-2.88-11.036 0-6.016 1.926-10.884 5.78-14.605 3.854-3.72 9.175-5.581 15.964-5.581 5.509 0 9.858.833 13.047 2.5 3.19 1.668 5.618 4.084 7.285 7.249 1.667 3.165 2.5 7.284 2.5 12.358v1.667zM78.762 48.48c-.29-2.85-1.057-4.892-2.3-6.125-1.245-1.232-2.882-1.848-4.912-1.848-2.343 0-4.216.93-5.617 2.79-.894 1.16-1.462 2.888-1.703 5.183h14.532zM118.338 18v14.642h8.118v10.763h-8.118v13.663c0 1.643.157 2.73.471 3.262.484.822 1.33 1.232 2.537 1.232 1.088 0 2.61-.314 4.567-.942L127 70.804c-3.648.797-7.055 1.196-10.22 1.196-3.673 0-6.379-.471-8.118-1.413-1.74-.943-3.026-2.374-3.86-4.295-.834-1.92-1.25-5.032-1.25-9.332V43.405h-5.437V32.642h5.437v-7.068L118.338 18z" fill="#000"/><path d="M267 18h27.002c5.88 0 10.285 1.413 13.214 4.24 2.928 2.827 4.393 6.85 4.393 12.069 0 5.364-1.596 9.555-4.788 12.576-3.191 3.02-8.062 4.53-14.612 4.53h-8.893V71.13H267V18zm16.316 22.651h3.98c3.132 0 5.331-.55 6.598-1.649 1.267-1.1 1.9-2.507 1.9-4.222 0-1.667-.549-3.08-1.649-4.24-1.1-1.16-3.167-1.74-6.203-1.74h-4.626v11.851zm47.872 4.458l-13.95-1.486c.526-2.465 1.285-4.404 2.278-5.817.992-1.413 2.42-2.64 4.285-3.678 1.338-.75 3.18-1.33 5.522-1.74 2.343-.41 4.877-.616 7.602-.616 4.375 0 7.89.247 10.543.743 2.653.495 4.865 1.528 6.634 3.098 1.243 1.088 2.223 2.628 2.94 4.621.717 1.994 1.076 3.896 1.076 5.708V62.94c0 1.812.113 3.231.34 4.258.228 1.027.724 2.338 1.489 3.932h-13.698c-.55-.99-.909-1.745-1.076-2.265-.168-.52-.335-1.335-.502-2.446-1.913 1.86-3.813 3.189-5.702 3.986-2.582 1.063-5.582 1.595-9 1.595-4.543 0-7.991-1.063-10.346-3.19-2.355-2.125-3.532-4.747-3.532-7.864 0-2.923.849-5.327 2.546-7.212 1.697-1.884 4.829-3.286 9.395-4.204 5.475-1.111 9.025-1.89 10.65-2.337a49.213 49.213 0 0 0 5.164-1.758c0-1.812-.37-3.08-1.112-3.805-.74-.725-2.044-1.088-3.908-1.088-2.39 0-4.184.387-5.38 1.16-.932.604-1.685 1.74-2.258 3.407zm12.658 7.755a68.165 68.165 0 0 1-6.275 1.921c-2.965.798-4.841 1.583-5.63 2.356-.813.797-1.22 1.703-1.22 2.718 0 1.16.401 2.108 1.202 2.845.8.737 1.978 1.105 3.532 1.105a9.006 9.006 0 0 0 4.536-1.196c1.399-.797 2.39-1.77 2.976-2.917.586-1.148.879-2.64.879-4.476v-2.356zM367.37 18H382v53.13h-14.63V18z" fill="#2A2724"/><path d="M203.189 33.767l23.287 9.758c6.363 2.667 9.36 9.99 6.695 16.352a12.487 12.487 0 0 1-5.276 5.993l-26.479 15.287c-5.974 3.45-13.617 1.404-17.068-4.573a12.479 12.479 0 0 1-1.573-7.828l3.192-25.047c.872-6.843 7.13-11.685 13.974-10.813 1.116.143 2.21.436 3.249.87h-.001zM165.86 14.243a8.413 8.413 0 0 1 11.492 3.08l2.104 3.644a8.413 8.413 0 0 1-14.571 8.413l-2.104-3.645a8.413 8.413 0 0 1 3.079-11.492zm-4.058 26.63a8.415 8.415 0 0 1 11.498 3.082l2.102 3.64a8.415 8.415 0 0 1-3.081 11.498 8.414 8.414 0 0 1-11.494-3.082l-2.102-3.642a8.414 8.414 0 0 1 3.077-11.495zm25.919-39.252a8.413 8.413 0 0 1 11.492 3.08l2.104 3.644a8.413 8.413 0 0 1-14.571 8.413l-2.105-3.644a8.413 8.413 0 0 1 3.08-11.493zm25.092 9.802a8.414 8.414 0 0 1 11.494 3.082l2.102 3.642a8.414 8.414 0 0 1-3.077 11.495 8.415 8.415 0 0 1-11.498-3.08l-2.102-3.642a8.415 8.415 0 0 1 3.08-11.497z" fill="#F5CF00" fill-rule="nonzero"/></g></svg>